<?xml version="1.0" standalone="no"?>
<!DOCTYPE svg PUBLIC "-//W3C//DTD SVG 20010904//EN"
 "http://www.w3.org/TR/2001/REC-SVG-20010904/DTD/svg10.dtd">
<svg version="1.0" xmlns="http://www.w3.org/2000/svg"
 width="700.000000pt" height="700.000000pt" viewBox="0 0 700.000000 700.000000"
 preserveAspectRatio="xMidYMid meet">
<metadata>
Created by potrace 1.14, written by Peter Selinger 2001-2017
</metadata>
<g transform="translate(0.000000,700.000000) scale(0.100000,-0.100000)"
fill="#000000" stroke="none">
<path d="M3305 6115 c-66 -113 -127 -219 -135 -233 -15 -26 -75 -130 -95 -164
-5 -9 -20 -34 -31 -55 -26 -47 -43 -75 -134 -233 -40 -69 -84 -145 -98 -170
-14 -25 -45 -78 -69 -118 -24 -41 -43 -75 -43 -77 0 -1 -24 -42 -53 -91 -29
-49 -67 -114 -84 -144 -17 -30 -79 -138 -138 -240 -59 -102 -116 -201 -127
-220 -61 -107 -102 -178 -116 -200 -9 -14 -17 -27 -17 -30 0 -3 -8 -16 -17
-30 -8 -14 -84 -144 -168 -290 -84 -146 -169 -294 -190 -330 -105 -181 -196
-337 -390 -675 -118 -203 -277 -480 -355 -615 -78 -135 -158 -274 -179 -310
-20 -36 -41 -72 -46 -80 -41 -65 -151 -262 -148 -265 2 -3 67 32 143 77 77 44
160 92 185 106 25 14 59 34 75 44 17 10 37 21 45 25 8 3 39 21 68 40 29 18 54
33 56 33 5 0 375 213 423 243 24 15 45 27 48 27 2 0 26 13 52 29 27 16 71 42
99 58 28 15 163 93 301 172 l250 145 69 120 c38 66 74 128 79 138 6 9 39 68
75 130 36 62 74 128 85 148 40 69 136 235 145 250 5 8 102 177 216 375 113
198 222 387 241 420 20 33 51 88 70 121 l33 62 -2 1007 -3 1007 -120 -207z"/>
<path d="M3570 5315 l0 -1010 176 -305 c97 -168 185 -321 196 -340 10 -19 23
-42 28 -50 34 -54 210 -362 210 -367 0 -4 6 -14 14 -22 7 -9 27 -41 43 -71 17
-30 79 -138 138 -240 59 -102 123 -214 143 -250 56 -104 68 -116 170 -176 53
-31 138 -80 187 -109 185 -107 474 -274 506 -292 19 -10 88 -50 154 -89 371
-218 787 -455 791 -451 3 2 -45 92 -107 198 -61 107 -125 219 -142 249 -16 30
-33 60 -37 65 -4 6 -17 26 -28 45 -11 19 -68 118 -127 220 -59 102 -117 203
-130 225 -30 54 -123 215 -205 355 -36 63 -78 135 -92 160 -14 25 -149 259
-300 520 -151 261 -286 495 -300 520 -14 25 -40 70 -58 100 -18 30 -42 71 -53
90 -11 19 -105 184 -210 365 -104 182 -246 427 -314 545 -68 118 -128 222
-133 230 -5 8 -24 42 -43 75 -19 33 -43 76 -55 95 -11 19 -104 181 -207 360
-103 179 -194 334 -201 345 -12 16 -14 -136 -14 -990z"/>
<path d="M2485 2421 c-10 -2 -35 -13 -54 -26 -20 -13 -200 -117 -401 -233
-419 -240 -429 -247 -490 -281 -25 -14 -46 -29 -48 -33 -2 -4 -8 -8 -14 -8 -5
0 -67 -33 -136 -74 -70 -40 -143 -83 -162 -94 -68 -38 -298 -171 -331 -191
-19 -11 -52 -31 -74 -43 l-40 -23 1383 -3 c760 -1 2004 -1 2765 0 l1382 3 -85
49 c-47 27 -137 80 -200 116 -63 37 -135 79 -160 92 -25 14 -101 58 -170 98
-69 40 -145 84 -169 98 -25 14 -68 38 -95 55 -28 16 -76 43 -106 60 -30 17
-67 38 -82 49 -14 10 -28 18 -31 18 -4 0 -118 64 -177 100 -8 4 -118 68 -244
141 l-228 132 -1007 1 c-554 0 -1016 -1 -1026 -3z"/>
</g>
</svg>
