<svg width="36" height="36" viewBox="0 0 36 36" fill="none" xmlns="http://www.w3.org/2000/svg">
<path d="M11.5152 28.5701L0.426758 35.952C0.495554 35.9826 0.568492 35.9988 0.642203 36.0001H35.3741C35.4438 35.9992 35.513 35.9857 35.5791 35.96L24.4663 28.5701H11.5152Z" fill="#139AB8"/>
<path d="M17.5588 0C17.5076 0.0541442 17.4632 0.11618 17.4268 0.184348L0.0694984 34.8578C0.0373917 34.9229 0.0139628 34.9931 0 35.0662L11.1198 27.6763L17.5588 14.7759V0Z" fill="#139AB8"/>
<path d="M35.9272 34.8578L18.57 0.184348C18.5359 0.115435 18.4925 0.0532108 18.4414 0V14.7759L24.9048 27.6923L36.0002 35.1023C35.9893 35.0163 35.9646 34.9334 35.9272 34.8578Z" fill="#139AB8"/>
</svg>
